<?xml version="1.0" encoding="UTF-8"?>
<svg width="299px" height="54px" viewBox="0 0 299 54" version="1.1" xmlns="http://www.w3.org/2000/svg" xmlns:xlink="http://www.w3.org/1999/xlink">
    <title>BI_KS@1x</title>
    <defs>
        <polygon id="path-ks-1" points="0.00026605824 0.873070115 48.3297454 0.873070115 48.3297454 38.5784448 0.00026605824 38.5784448"></polygon>
        <polygon id="path-ks-3" points="0.905130132 0.592112613 16.7124483 0.592112613 16.7124483 29.8758128 0.905130132 29.8758128"></polygon>
    </defs>
    <g id="[PC]-GNB_메인_브랜드관" stroke="none" stroke-width="1" fill="none" fill-rule="evenodd">
        <g id="PC_브랜드관_GNB_브랜드로고유형" transform="translate(-128.000000, -4404.000000)">
            <g id="브랜드관_GNB_KS" transform="translate(80.000000, 4384.000000)">
                <g id="브랜드관_BI" transform="translate(48.000000, 20.000000)">
                    <g id="KS_Black" transform="translate(0.000000, 5.000000)">
                        <g id="Group-3" transform="translate(0.000000, 0.457221)">
                            <mask id="mask-2" fill="white">
                                <use xlink:href="#path-ks-1"></use>
                            </mask>
                            <g id="Clip-2"></g>
                            <path d="M43.3903741,28.1879393 L38.4004518,25.0551035 L38.4004518,23.4042122 L43.3903741,28.1879393 Z M26.9413234,25.2187294 L31.1224287,20.4270205 L31.1224287,23.0756302 L26.9413234,25.2187294 Z M46.8411495,31.6653205 L44.5197914,35.2238495 L37.2923193,30.6822353 L37.2923193,37.469381 L32.1959737,37.469381 L32.1959737,28.4486764 L28.501755,30.3177355 L24.577396,27.6531623 L32.1281288,23.7194912 L32.1281288,17.6719874 L27.6769745,22.7403969 L29.2852965,18.4555289 L26.9253599,17.5988214 L32.1001927,11.6085201 L32.1001927,9.32707069 L27.6357354,12.000956 L28.314184,11.0537887 L25.0975398,8.59008937 C27.4787611,7.15869603 33.4610806,3.56025834 34.2472827,3.08933525 C35.1838077,3.65869989 44.4439648,9.26986817 45.9631573,10.1890994 C45.3126449,11.2400294 44.1858883,13.0665193 43.5526697,14.0881829 C42.2902233,13.3418895 37.3082828,10.3926339 37.3082828,10.3926339 L37.3082828,14.8437883 C37.3082828,14.8437883 45.4656284,22.5475046 46.8012408,23.8006389 C45.9365515,24.6932643 44.4625888,26.208466 43.6950108,27.0039802 C42.9806444,26.3202105 37.322916,21.0017063 37.322916,21.0017063 L37.322916,25.6284591 L46.8411495,31.6653205 Z M21.9740161,23.3164129 L22.4728753,22.7284242 L26.3879223,24.1917446 L25.0456585,25.7761214 L21.9740161,23.3164129 Z M24.3791826,26.5836081 L23.5983017,26.9813652 L19.2815067,24.0533943 L19.2815067,21.5205198 L21.4325876,22.316034 L20.566568,23.3164129 L24.3791826,26.5836081 Z M31.0652262,11.2214054 L25.861127,17.2263398 L19.2961399,14.6921351 L19.2961399,12.1233428 L24.449688,16.0796288 L25.8411726,14.3156627 L31.0652262,11.2214054 Z M6.30451606,16.6157362 L12.0660072,11.8998539 L12.0660072,13.138355 L6.30451606,16.6157362 Z M26.4491157,35.3409151 C25.0868975,34.4309959 18.2492007,29.8428216 18.2492007,29.8428216 L18.2492007,37.5132806 L13.1315705,37.5132806 L13.1315705,28.3821618 C13.1315705,28.3821618 8.0817851,34.4549412 7.08672728,35.6575244 C6.14887198,34.8939373 4.54587109,33.5796096 3.60535521,32.8133618 C4.78000234,31.3793079 13.1329008,21.1919379 13.1329008,21.1919379 L13.1329008,18.3717206 L4.6496338,23.4467815 L2.61295798,20.1197232 L13.1315705,13.7409769 L13.1315705,9.65166174 L4.3330245,16.7647288 C3.34727872,15.5554941 2.04625392,13.9524932 1.50083453,13.2806961 C2.91626437,12.1366457 15.1855401,2.22996714 15.1855401,2.22996714 L26.8136155,11.2639747 L24.2488141,14.62296 L18.2332372,10.0520794 L18.2332372,15.4277861 L27.9111057,19.1246654 L26.409207,23.0383821 L18.2172738,20.0239422 L18.2172738,24.6174377 C18.2172738,24.6174377 28.7412074,31.7637621 28.8542822,31.8435795 C28.186476,32.818683 27.1102704,34.3777843 26.4491157,35.3409151 L26.4491157,35.3409151 Z M48.3297454,23.7806846 L38.3844883,14.3981407 L38.3844883,12.2736657 L43.9145089,15.5501729 L47.446432,9.84721455 L34.2605856,1.85482502 L24.2168871,7.89567736 L15.1695766,0.873070115 L0.00026605824,13.1237218 L3.97118529,18.0112116 L1.15495882,19.7778384 L4.29178547,24.9007898 L12.0660072,20.2500917 L12.0660072,20.8101443 L2.10345645,32.9610241 L7.22773815,37.1514414 L12.0660072,31.3287568 L12.0660072,38.5788439 L19.3107731,38.5788439 L19.3107731,31.840919 L26.7258163,36.8135475 L30.3402175,31.5708698 L29.5300701,31.0121475 L31.1397225,30.1980093 L31.1397225,38.5415957 L38.3698551,38.5415957 L38.3698551,32.6231302 L44.8523642,36.692491 L48.3297454,31.366005 L43.814737,28.4300523 L48.3297454,23.7806846 Z" id="Fill-1" fill="#1F1F1F" mask="url(#mask-2)"></path>
                        </g>
                        <path d="M88.7358772,32.7789073 C82.9664043,32.7789073 78.2904307,28.1149063 78.2904307,22.3401122 C78.2904307,16.5732999 82.9664043,11.8853537 88.7358772,11.8853537 C94.5026896,11.8853537 99.1746723,16.5732999 99.1746723,22.3401122 C99.1746723,28.1149063 94.5026896,32.7789073 88.7358772,32.7789073 M88.7358772,7.70025758 C80.6570188,7.70025758 74.0946923,14.2479509 74.0946923,22.3401122 C74.0946923,30.4309433 80.6570188,36.9839578 88.7358772,36.9839578 C96.8054237,36.9839578 103.377062,30.4309433 103.377062,22.3401122 C103.377062,14.2479509 96.8054237,7.70025758 88.7358772,7.70025758" id="Fill-4" fill="#1F1F1F"></path>
                        <path d="M133.791643,32.7789073 C128.02084,32.7789073 123.347527,28.1149063 123.347527,22.3401122 C123.347527,16.5732999 128.02084,11.8853537 133.791643,11.8853537 C139.555795,11.8853537 144.229108,16.5732999 144.229108,22.3401122 C144.229108,28.1149063 139.555795,32.7789073 133.791643,32.7789073 M133.791643,7.70025758 C125.708794,7.70025758 119.147797,14.2479509 119.147797,22.3401122 C119.147797,30.4309433 125.708794,36.9839578 133.791643,36.9839578 C141.861189,36.9839578 148.431498,30.4309433 148.431498,22.3401122 C148.431498,14.2479509 141.861189,7.70025758 133.791643,7.70025758" id="Fill-6" fill="#1F1F1F"></path>
                        <path d="M244.474797,32.7789073 C238.705324,32.7789073 234.02669,28.1149063 234.02669,22.3401122 C234.02669,16.5732999 238.705324,11.8853537 244.474797,11.8853537 C250.24161,11.8853537 254.912262,16.5732999 254.912262,22.3401122 C254.912262,28.1149063 250.24161,32.7789073 244.474797,32.7789073 M244.474797,7.70025758 C236.393278,7.70025758 229.830952,14.2479509 229.830952,22.3401122 C229.830952,30.4309433 236.393278,36.9839578 244.474797,36.9839578 C252.545674,36.9839578 259.117313,30.4309433 259.117313,22.3401122 C259.117313,14.2479509 252.545674,7.70025758 244.474797,7.70025758" id="Fill-8" fill="#1F1F1F"></path>
                        <polygon id="Fill-10" fill="#1F1F1F" points="111.626198 32.5580789 111.626198 7.70025758 107.052657 7.70025758 107.052657 36.9839578 121.443747 36.9839578 121.443747 32.5580789"></polygon>
                        <path d="M219.290123,20.8686771 C217.781573,20.9325311 215.570629,20.8873012 214.554287,20.8819801 L214.554287,11.6337956 L219.290123,11.6337956 C219.290123,11.6337956 223.388751,12.042195 223.213152,16.043711 C223.054848,20.0478875 221.32813,20.7861991 219.290123,20.8686771 M220.190731,7.70145484 L209.974094,7.70145484 L209.974094,36.9838247 L214.554287,36.9838247 L214.554287,25.2852439 L219.290123,25.2852439 C219.290123,25.2852439 227.400909,25.2852439 227.463433,16.1235284 C227.527287,9.00114935 220.190731,7.70145484 220.190731,7.70145484" id="Fill-12" fill="#1F1F1F"></path>
                        <path d="M266.903906,11.6332635 L272.970034,11.6332635 C272.970034,11.6332635 277.01944,12.0429932 276.889072,16.0431788 C276.772006,19.364916 275.002719,20.785667 272.970034,20.868145 C271.35506,20.931999 268.184977,20.8867691 266.903906,20.8734662 L266.903906,11.6332635 Z M277.538254,36.9846229 L282.428404,36.9846229 L274.096791,24.6355297 C276.813245,24.1326796 281.066186,22.3460985 281.142013,16.1229963 C281.203206,9.00061723 273.859999,7.70092273 273.859999,7.70092273 L262.329035,7.70092273 L262.329035,36.9846229 L266.903906,36.9846229 L266.903906,21.2845262 L266.979733,21.3231046 L277.538254,36.9846229 Z" id="Fill-14" fill="#1F1F1F"></path>
                        <g id="Group-18" transform="translate(282.021734, 7.108677)">
                            <mask id="mask-4" fill="white">
                                <use xlink:href="#path-ks-3"></use>
                            </mask>
                            <g id="Clip-17"></g>
                            <polygon id="Fill-16" fill="#1F1F1F" mask="url(#mask-4)" points="6.57616152 5.63790713 6.57616152 29.8758128 11.1497027 29.8758128 11.1497027 5.63790713 16.7129805 5.63790713 16.7129805 0.592112613 0.905130132 0.592112613 0.905130132 5.63790713"></polygon>
                        </g>
                        <path d="M197.770402,19.6007766 L197.770402,19.5914646 C195.61533,19.5914646 193.869988,17.8022229 193.869988,15.6644449 C193.869988,13.5200155 195.61533,11.7866461 197.770402,11.7866461 C199.775151,11.7866461 201.407418,13.3031781 201.621595,15.2414123 L205.746828,15.2414123 C205.519348,11.0403527 202.041967,7.70132182 197.770402,7.70132182 C193.351174,7.70132182 189.7687,11.2638416 189.7687,15.6644449 C189.7687,20.0557362 193.347184,23.6155954 197.76109,23.6249075 L197.770402,23.6275681 C200.357818,23.6275681 202.457018,25.7174555 202.457018,28.2968902 C202.457018,30.8723339 200.357818,32.9582305 197.770402,32.9582305 C195.178995,32.9582305 193.083786,30.8723339 193.083786,28.2968902 C193.083786,28.1439067 193.089107,27.9949141 193.109061,27.8499123 L189.053004,27.8499123 C189.047682,27.9949141 189.033049,28.1439067 189.033049,28.2968902 C189.033049,33.0939202 192.942775,36.9836917 197.770402,36.9836917 C202.592707,36.9836917 206.502433,33.0939202 206.502433,28.2968902 C206.502433,23.4918784 202.592707,19.6007766 197.770402,19.6007766" id="Fill-19" fill="#1F1F1F"></path>
                        <polygon id="Fill-21" fill="#1F1F1F" points="169.45236 7.70092273 169.45236 28.7288357 156.053667 7.70092273 151.13159 7.70092273 151.13159 36.9846229 155.719764 36.9846229 155.719764 15.1186265 169.444378 36.9846229 169.45236 36.980632 169.45236 36.9846229 174.033883 36.9846229 174.033883 7.70092273"></polygon>
                        <polygon id="Fill-23" fill="#1F1F1F" points="59.8644343 22.3522179 59.9814999 22.3522179 66.9615378 31.2438843 71.4659038 36.9840908 76.7830778 36.9840908 69.6833136 27.9327895 65.1177542 22.1260684 76.4372021 7.70039061 71.1586066 7.70039061 60.2382461 21.6045942 59.8644343 21.6045942 59.8644343 7.70039061 55.2682782 7.70039061 55.2682782 36.9734485 59.8644343 36.9734485"></polygon>
                    </g>
                </g>
            </g>
        </g>
    </g>
</svg>